<?xml version="1.0" encoding="UTF-8" standalone="no"?>
<!DOCTYPE svg PUBLIC "-//W3C//DTD SVG 1.1//EN" "http://www.w3.org/Graphics/SVG/1.1/DTD/svg11.dtd">
<svg width="100%" height="100%" viewBox="0 0 610 470" version="1.1" xmlns="http://www.w3.org/2000/svg" xmlns:xlink="http://www.w3.org/1999/xlink" xml:space="preserve" xmlns:serif="http://www.serif.com/" style="fill-rule:evenodd;clip-rule:evenodd;stroke-linecap:round;stroke-linejoin:round;stroke-miterlimit:1.5;">
    <path d="M66.073,65.693C217.246,14.818 381.117,18.207 555.305,65.693L555.305,170.597C505.198,174.771 483.155,198.682 485.886,240.015C494.348,271.282 513.763,283.61 536.341,290.47C441.255,327.395 418.511,367.812 417.532,409.278C337.045,466.78 273.604,456.935 219.732,409.278C214.028,326.819 274.634,291.193 357.63,271.381C310.32,236.473 252.712,230.639 186.931,247.878C165.838,253.406 125.38,274.239 121.201,271.381C117.021,268.522 112.184,236.947 161.854,230.728C128.597,194.027 90.761,199.904 50.241,230.728C6.694,166.871 23.418,113.933 66.073,65.693Z" style="fill:rgb(255,0,0);stroke:black;stroke-width:1px;"/>
</svg>
