<?xml version="1.0" encoding="UTF-8" standalone="no"?>
<!DOCTYPE svg PUBLIC "-//W3C//DTD SVG 1.1//EN" "http://www.w3.org/Graphics/SVG/1.1/DTD/svg11.dtd">
<svg width="100%" height="100%" viewBox="0 0 610 470" version="1.1" xmlns="http://www.w3.org/2000/svg" xmlns:xlink="http://www.w3.org/1999/xlink" xml:space="preserve" xmlns:serif="http://www.serif.com/" style="fill-rule:evenodd;clip-rule:evenodd;stroke-linecap:round;stroke-linejoin:round;stroke-miterlimit:1.5;">
    <path d="M158.908,133.606C259.852,101.318 362.932,102.752 467.857,133.289L467.693,198.587C438.868,202.607 421.009,215.022 423.583,243.077C428.838,263.31 440.442,272.345 455.865,274.648C406.076,295.26 380.338,320.198 380.88,349.862C332.727,384.998 291.914,379.858 255.555,350.266C253.487,301.947 283.823,273.664 342.639,262.991C299.114,233.299 248.974,237.263 194.5,263.277C188.963,255.356 189.947,247.012 218.835,236.864C195.306,213.56 172.09,217.291 149.072,238.209C120.776,196.421 132.269,163.354 158.908,133.606Z" style="fill:rgb(255,0,0);stroke:black;stroke-width:1px;"/>
</svg>
