<?xml version="1.0" encoding="UTF-8" standalone="no"?>
<!DOCTYPE svg PUBLIC "-//W3C//DTD SVG 1.1//EN" "http://www.w3.org/Graphics/SVG/1.1/DTD/svg11.dtd">
<svg width="100%" height="100%" viewBox="0 0 610 470" version="1.1" xmlns="http://www.w3.org/2000/svg" xmlns:xlink="http://www.w3.org/1999/xlink" xml:space="preserve" xmlns:serif="http://www.serif.com/" style="fill-rule:evenodd;clip-rule:evenodd;stroke-linecap:round;stroke-linejoin:round;stroke-miterlimit:1.5;">
    <path d="M106.654,110.435C106.654,110.435 456.747,-47.396 455.943,109.688C455.14,266.773 480.039,180.538 509.491,206.445C538.944,232.351 640.551,315.87 536.435,408.902C432.319,501.934 497.921,377.873 434.079,412.144C370.237,446.416 301.408,358.91 350.369,338.856C399.329,318.802 437.909,223.124 371.659,219.106C305.409,215.087 269.628,141.91 209.53,203.144C149.431,264.378 261.263,257.502 202.883,302.974C144.502,348.446 107.222,445.868 82.924,381.81C58.625,317.752 7.304,243.941 40.423,216.839C73.541,189.738 0.911,105.648 106.654,110.435Z" style="fill:hsl(0, 100%, 75%);stroke:black;stroke-width:1px;"/>
</svg>
