<?xml version="1.0" encoding="UTF-8" standalone="no"?>
<!DOCTYPE svg PUBLIC "-//W3C//DTD SVG 1.1//EN" "http://www.w3.org/Graphics/SVG/1.1/DTD/svg11.dtd">
<svg width="100%" height="100%" viewBox="0 0 610 470" version="1.1" xmlns="http://www.w3.org/2000/svg" xmlns:xlink="http://www.w3.org/1999/xlink" xml:space="preserve" xmlns:serif="http://www.serif.com/" style="fill-rule:evenodd;clip-rule:evenodd;stroke-linejoin:round;stroke-miterlimit:2;">
    <path d="M510.535,142.605C490.824,122.133 370.926,186.166 370.926,186.166C370.926,186.166 234.914,166.311 151.91,154.195C135.569,151.809 118.995,156.601 106.449,167.339C93.903,178.077 86.609,193.713 86.443,210.226C86.005,252.838 88.497,302.509 101.852,313.168C126.168,332.573 291.877,252.141 291.877,252.141C345.28,268.398 400.095,283.302 457.104,296.103C472.122,299.431 487.844,295.934 500.036,286.555C512.229,277.175 519.64,262.876 520.274,247.506C522.036,205.078 521.614,154.113 510.535,142.605Z" style="fill:rgb(255,0,0);"/>
</svg>
