<?xml version="1.0" encoding="UTF-8" standalone="no"?>
<!DOCTYPE svg PUBLIC "-//W3C//DTD SVG 1.1//EN" "http://www.w3.org/Graphics/SVG/1.1/DTD/svg11.dtd">
<svg width="100%" height="100%" viewBox="0 0 610 470" version="1.1" xmlns="http://www.w3.org/2000/svg" xmlns:xlink="http://www.w3.org/1999/xlink" xml:space="preserve" xmlns:serif="http://www.serif.com/" style="fill-rule:evenodd;clip-rule:evenodd;stroke-linejoin:round;stroke-miterlimit:2;">
    <path d="M503.224,25.171C483.513,4.698 367.731,137.707 367.731,137.707C367.731,137.707 245.971,95.354 162.804,66.425C145.273,60.326 125.872,63.113 110.766,73.9C95.66,84.686 86.726,102.132 86.804,120.694C87.285,231.814 90.634,419.906 107.688,433.517C132.003,452.922 290.718,291.048 290.718,291.048C338.103,305.473 389.428,350.258 441.496,383.293C457.567,393.473 477.915,394.063 494.549,384.831C511.182,375.599 521.446,358.02 521.309,338.996C520.496,228.043 517.067,39.548 503.224,25.171Z" style="fill:rgb(255,0,0);"/>
</svg>
